
<svg width="30px" height="30px" viewBox="0 0 30 30" version="1.1" xmlns="http://www.w3.org/2000/svg" xmlns:xlink="http://www.w3.org/1999/xlink">
    <g id="Consumer-web-app" stroke="none" stroke-width="1" fill="none" fill-rule="evenodd">
        <g id="Charging-History" transform="translate(-199, -840)" fill="#9B7221" fill-rule="nonzero">
            <g id="Group-2" transform="translate(199, 840)">
                <g id="arrow_back_ios_new_FILL0_wght400_GRAD0_opsz48" transform="translate(9, 7)">
                    <polygon id="Path" points="8.42105263 16 0 8 8.42105263 0 9.6 1.14 2.37894737 8 9.6 14.86"></polygon>
                </g>
                <path d="M15,0 C17.075,0 19.025,0.39375 20.85,1.18125 C22.675,1.96875 24.2625,3.0375 25.6125,4.3875 C26.9625,5.7375 28.03125,7.325 28.81875,9.15 C29.60625,10.975 30,12.925 30,15 C30,17.05 29.60625,18.9875 28.81875,20.8125 C28.03125,22.6375 26.9625,24.23125 25.6125,25.59375 C24.2625,26.95625 22.675,28.03125 20.85,28.81875 C19.025,29.60625 17.075,30 15,30 C12.95,30 11.0125,29.60625 9.1875,28.81875 C7.3625,28.03125 5.76875,26.95625 4.40625,25.59375 C3.04375,24.23125 1.96875,22.6375 1.18125,20.8125 C0.39375,18.9875 0,17.05 0,15 C0,12.925 0.39375,10.975 1.18125,9.15 C1.96875,7.325 3.04375,5.7375 4.40625,4.3875 C5.76875,3.0375 7.3625,1.96875 9.1875,1.18125 C11.0125,0.39375 12.95,0 15,0 Z M15,2 C11.4058824,2 8.34068627,3.26176471 5.80441176,5.78529412 C3.26813725,8.30882353 2,11.3803922 2,15 C2,18.5941176 3.26813725,21.6593137 5.80441176,24.1955882 C8.34068627,26.7318627 11.4058824,28 15,28 C18.6196078,28 21.6911765,26.7318627 24.2147059,24.1955882 C26.7382353,21.6593137 28,18.5941176 28,15 C28,11.3803922 26.7382353,8.30882353 24.2147059,5.78529412 C21.6911765,3.26176471 18.6196078,2 15,2 Z" id="Combined-Shape"></path>
            </g>
        </g>
    </g>
</svg>