
<svg width="30px" height="30px" viewBox="0 0 30 30" version="1.1" xmlns="http://www.w3.org/2000/svg" xmlns:xlink="http://www.w3.org/1999/xlink">
    <g id="Consumer-web-app" stroke="none" strokeWidth="1" fill="none" fill-rule="evenodd">
        <g id="Charging-Dashboard" transform="translate(-199, -840)" fill="#9B7221" fill-rule="nonzero">
            <g id="cancel_FILL0_wght400_GRAD0_opsz48" transform="translate(199, 840)">
                <path d="M9.375,22.2 L15,16.575 L20.625,22.2 L22.2,20.625 L16.575,15 L22.2,9.375 L20.625,7.8 L15,13.425 L9.375,7.8 L7.8,9.375 L13.425,15 L7.8,20.625 L9.375,22.2 Z M15,30 C12.95,30 11.0125,29.60625 9.1875,28.81875 C7.3625,28.03125 5.76875,26.95625 4.40625,25.59375 C3.04375,24.23125 1.96875,22.6375 1.18125,20.8125 C0.39375,18.9875 0,17.05 0,15 C0,12.925 0.39375,10.975 1.18125,9.15 C1.96875,7.325 3.04375,5.7375 4.40625,4.3875 C5.76875,3.0375 7.3625,1.96875 9.1875,1.18125 C11.0125,0.39375 12.95,0 15,0 C17.075,0 19.025,0.39375 20.85,1.18125 C22.675,1.96875 24.2625,3.0375 25.6125,4.3875 C26.9625,5.7375 28.03125,7.325 28.81875,9.15 C29.60625,10.975 30,12.925 30,15 C30,17.05 29.60625,18.9875 28.81875,20.8125 C28.03125,22.6375 26.9625,24.23125 25.6125,25.59375 C24.2625,26.95625 22.675,28.03125 20.85,28.81875 C19.025,29.60625 17.075,30 15,30 Z M15,27.75 C18.55,27.75 21.5625,26.50625 24.0375,24.01875 C26.5125,21.53125 27.75,18.525 27.75,15 C27.75,11.45 26.5125,8.4375 24.0375,5.9625 C21.5625,3.4875 18.55,2.25 15,2.25 C11.475,2.25 8.46875,3.4875 5.98125,5.9625 C3.49375,8.4375 2.25,11.45 2.25,15 C2.25,18.525 3.49375,21.53125 5.98125,24.01875 C8.46875,26.50625 11.475,27.75 15,27.75 Z" id="Shape"></path>
            </g>
        </g>
    </g>
</svg>