
<svg width="40px" height="40px" viewBox="0 0 40 40" version="1.1" xmlns="http://www.w3.org/2000/svg" xmlns:xlink="http://www.w3.org/1999/xlink">
    <g id="Consumer-web-app" stroke="none" strokeWidth="1" fill="none" fill-rule="evenodd">
        <g id="Charging-Dashboard" transform="translate(-58, -716)" fill="#FFFFFF" fill-rule="nonzero">
            <g id="monetization_on_FILL0_wght400_GRAD0_opsz48" transform="translate(58, 716)">
                <path d="M18.55,34.35 L21.3,34.35 L21.3,31.75 C23.3333333,31.5166667 24.9166667,30.8916667 26.05,29.875 C27.1833333,28.8583333 27.75,27.5 27.75,25.8 C27.75,24.1 27.2666667,22.7166667 26.3,21.65 C25.3333333,20.5833333 23.7,19.5666667 21.4,18.6 C19.4666667,17.8 18.0666667,17.0833333 17.2,16.45 C16.3333333,15.8166667 15.9,14.9666667 15.9,13.9 C15.9,12.8666667 16.275,12.05 17.025,11.45 C17.775,10.85 18.8,10.55 20.1,10.55 C21.1,10.55 21.9666667,10.7833333 22.7,11.25 C23.4333333,11.7166667 24.05,12.4166667 24.55,13.35 L26.95,12.2 C26.3833333,11.0333333 25.6333333,10.1166667 24.7,9.45 C23.7666667,8.78333333 22.6666667,8.38333333 21.4,8.25 L21.4,5.7 L18.65,5.7 L18.65,8.25 C16.95,8.48333333 15.6083333,9.10833333 14.625,10.125 C13.6416667,11.1416667 13.15,12.4 13.15,13.9 C13.15,15.5333333 13.65,16.8333333 14.65,17.8 C15.65,18.7666667 17.15,19.6666667 19.15,20.5 C21.3833333,21.4333333 22.9166667,22.275 23.75,23.025 C24.5833333,23.775 25,24.7 25,25.8 C25,26.8666667 24.5583333,27.725 23.675,28.375 C22.7916667,29.025 21.6833333,29.35 20.35,29.35 C19.05,29.35 17.8916667,28.9833333 16.875,28.25 C15.8583333,27.5166667 15.15,26.5166667 14.75,25.25 L12.2,26.1 C12.9,27.6333333 13.7583333,28.8416667 14.775,29.725 C15.7916667,30.6083333 17.05,31.25 18.55,31.65 L18.55,34.35 Z M20,40 C17.2666667,40 14.6833333,39.475 12.25,38.425 C9.81666667,37.375 7.69166667,35.9416667 5.875,34.125 C4.05833333,32.3083333 2.625,30.1833333 1.575,27.75 C0.525,25.3166667 0,22.7333333 0,20 C0,17.2333333 0.525,14.6333333 1.575,12.2 C2.625,9.76666667 4.05833333,7.65 5.875,5.85 C7.69166667,4.05 9.81666667,2.625 12.25,1.575 C14.6833333,0.525 17.2666667,0 20,0 C22.7666667,0 25.3666667,0.525 27.8,1.575 C30.2333333,2.625 32.35,4.05 34.15,5.85 C35.95,7.65 37.375,9.76666667 38.425,12.2 C39.475,14.6333333 40,17.2333333 40,20 C40,22.7333333 39.475,25.3166667 38.425,27.75 C37.375,30.1833333 35.95,32.3083333 34.15,34.125 C32.35,35.9416667 30.2333333,37.375 27.8,38.425 C25.3666667,39.475 22.7666667,40 20,40 Z M20,37 C24.7333333,37 28.75,35.3416667 32.05,32.025 C35.35,28.7083333 37,24.7 37,20 C37,15.2666667 35.35,11.25 32.05,7.95 C28.75,4.65 24.7333333,3 20,3 C15.3,3 11.2916667,4.65 7.975,7.95 C4.65833333,11.25 3,15.2666667 3,20 C3,24.7 4.65833333,28.7083333 7.975,32.025 C11.2916667,35.3416667 15.3,37 20,37 Z" id="Shape"></path>
            </g>
        </g>
    </g>
</svg>