<?xml version="1.0" encoding="UTF-8"?>
<svg width="98.1590909px" height="25px" viewBox="0 0 98.1590909 25" version="1.1" xmlns="http://www.w3.org/2000/svg" xmlns:xlink="http://www.w3.org/1999/xlink">
    <title>Group</title>
    <g id="Workshop" stroke="none" strokeWidth="1" fill="none" fill-rule="evenodd">
        <g id="Nxucharge.com-Copy" transform="translate(-160.903409, -25.000000)" fill-rule="nonzero">
            <g id="Group" transform="translate(160.903409, 25.000000)">
                <g id="Bolt_Outline-BLACK" transform="translate(33.596591, 0.000000)" fill="#9B7221">
                    <path d="M5.46891716,15.7344845 L0.891854183,15.7344845 C0.555305435,15.7344845 0.286066436,15.6015639 0.151446937,15.2692622 C-0.0504823123,15.0034208 -0.0504823123,14.6711192 0.151446937,14.4052778 L9.91136064,0.448607268 C10.0459801,0.24922626 10.2479094,0.116305588 10.4498386,0.049845252 C10.6517679,-0.016615084 10.8536971,-0.016615084 11.1229361,0.049845252 C11.3248654,0.116305588 11.5267946,0.24922626 11.6614141,0.515067603 C11.7960336,0.714448611 11.8633434,0.913829619 11.7960336,1.17967096 L10.5844581,10.484118 L16.1038576,10.484118 C16.5077161,10.484118 16.7769551,10.6170387 16.9115746,10.9493403 C17.0461941,11.281642 17.0461941,11.6139437 16.7769551,11.879785 L6.00739516,24.6401695 C5.87277566,24.8395506 5.67084641,24.9060109 5.46891716,24.9724712 C5.26698791,25.0389316 5.06505866,24.9724712 4.86312942,24.9060109 C4.66120017,24.8395506 4.52658067,24.7066299 4.39196117,24.5072489 C4.25734167,24.3078679 4.25734167,24.1084869 4.25734167,23.8426455 C4.25734167,23.8426455 5.46891716,15.7344845 5.46891716,15.7344845 Z" id="Shape"></path>
                </g>
                <path d="M10.0397727,11.1477273 L8.26704545,11.1477273 C8.19886364,10.7689394 8.0719697,10.4356061 7.88636364,10.1477273 C7.70075758,9.85984848 7.47348485,9.6155303 7.20454545,9.41477273 C6.93560606,9.21401515 6.63541667,9.0625 6.30397727,8.96022727 C5.97253788,8.85795455 5.62121212,8.80681818 5.25,8.80681818 C4.57954545,8.80681818 3.98011364,8.97537879 3.45170455,9.3125 C2.92329545,9.64962121 2.50662879,10.1439394 2.20170455,10.7954545 C1.8967803,11.4469697 1.74431818,12.2424242 1.74431818,13.1818182 C1.74431818,14.1287879 1.8967803,14.9280303 2.20170455,15.5795455 C2.50662879,16.2310606 2.92424242,16.7234848 3.45454545,17.0568182 C3.98484848,17.3901515 4.58143939,17.5568182 5.24431818,17.5568182 C5.61174242,17.5568182 5.96117424,17.5066288 6.29261364,17.40625 C6.62405303,17.3058712 6.92424242,17.157197 7.19318182,16.9602273 C7.46212121,16.7632576 7.69034091,16.5217803 7.87784091,16.2357955 C8.06534091,15.9498106 8.19507576,15.6212121 8.26704545,15.25 L10.0397727,15.2556818 C9.94507576,15.8276515 9.76231061,16.3532197 9.49147727,16.8323864 C9.22064394,17.311553 8.87405303,17.7244318 8.45170455,18.0710227 C8.02935606,18.4176136 7.54734848,18.6856061 7.00568182,18.875 C6.46401515,19.0643939 5.87310606,19.1590909 5.23295455,19.1590909 C4.22537879,19.1590909 3.32765152,18.9195076 2.53977273,18.4403409 C1.75189394,17.9611742 1.13162879,17.2746212 0.678977273,16.3806818 C0.226325758,15.4867424 0,14.4204545 0,13.1818182 C0,11.9393939 0.227272727,10.8721591 0.681818182,9.98011364 C1.13636364,9.08806818 1.75757576,8.40246212 2.54545455,7.92329545 C3.33333333,7.44412879 4.22916667,7.20454545 5.23295455,7.20454545 C5.85037879,7.20454545 6.42708333,7.29261364 6.96306818,7.46875 C7.49905303,7.64488636 7.98106061,7.90246212 8.40909091,8.24147727 C8.83712121,8.58049242 9.19128788,8.99337121 9.47159091,9.48011364 C9.75189394,9.96685606 9.94128788,10.5227273 10.0397727,11.1477273 Z" id="Path" fill="#FFFFFF"></path>
                <polygon id="Path" fill="#FFFFFF" points="18.1420455 19 18.1420455 7.36363636 19.8977273 7.36363636 19.8977273 12.4204545 25.6988636 12.4204545 25.6988636 7.36363636 27.4602273 7.36363636 27.4602273 19 25.6988636 19 25.6988636 13.9261364 19.8977273 13.9261364 19.8977273 19"></polygon>
                <path d="M56.4943182,19 L56.4943182,7.36363636 L60.6420455,7.36363636 C61.5435606,7.36363636 62.2926136,7.51893939 62.8892045,7.82954545 C63.4857955,8.14015152 63.9318182,8.56912879 64.2272727,9.11647727 C64.5227273,9.66382576 64.6704545,10.2954545 64.6704545,11.0113636 C64.6704545,11.7234848 64.5217803,12.3494318 64.2244318,12.8892045 C63.9270833,13.4289773 63.4801136,13.8484848 62.8835227,14.1477273 C62.2869318,14.4469697 61.5378788,14.5965909 60.6363636,14.5965909 L57.4943182,14.5965909 L57.4943182,13.0852273 L60.4772727,13.0852273 C61.0454545,13.0852273 61.5085227,13.0037879 61.8664773,12.8409091 C62.2244318,12.6780303 62.4867424,12.4412879 62.6534091,12.1306818 C62.8200758,11.8200758 62.9034091,11.4469697 62.9034091,11.0113636 C62.9034091,10.5719697 62.8191288,10.1912879 62.6505682,9.86931818 C62.4820076,9.54734848 62.21875,9.30018939 61.8607955,9.12784091 C61.5028409,8.95549242 61.0340909,8.86931818 60.4545455,8.86931818 L58.25,8.86931818 L58.25,19 L56.4943182,19 Z M62.2386364,13.75 L65.1136364,19 L63.1136364,19 L60.2954545,13.75 L62.2386364,13.75 Z" id="Shape" fill="#FFFFFF"></path>
                <path d="M80.6875,11.0397727 C80.5776515,10.6950758 80.4308712,10.3854167 80.2471591,10.1107955 C80.063447,9.83617424 79.844697,9.60132576 79.5909091,9.40625 C79.3371212,9.21117424 79.0482955,9.0625 78.7244318,8.96022727 C78.4005682,8.85795455 78.0454545,8.80681818 77.6590909,8.80681818 C77.0037879,8.80681818 76.4128788,8.97537879 75.8863636,9.3125 C75.3598485,9.64962121 74.9441288,10.1429924 74.6392045,10.7926136 C74.3342803,11.4422348 74.1818182,12.2367424 74.1818182,13.1761364 C74.1818182,14.1193182 74.3352273,14.9166667 74.6420455,15.5681818 C74.9488636,16.219697 75.3693182,16.7140152 75.9034091,17.0511364 C76.4375,17.3882576 77.0454545,17.5568182 77.7272727,17.5568182 C78.3598485,17.5568182 78.9119318,17.4280303 79.3835227,17.1704545 C79.8551136,16.9128788 80.2206439,16.5482955 80.4801136,16.0767045 C80.7395833,15.6051136 80.8693182,15.0492424 80.8693182,14.4090909 L81.3238636,14.4943182 L77.9943182,14.4943182 L77.9943182,13.0454545 L82.5681818,13.0454545 L82.5681818,14.3693182 C82.5681818,15.3465909 82.3607955,16.1941288 81.9460227,16.9119318 C81.53125,17.6297348 80.9592803,18.1837121 80.2301136,18.5738636 C79.500947,18.9640152 78.6666667,19.1590909 77.7272727,19.1590909 C76.6742424,19.1590909 75.750947,18.9166667 74.9573864,18.4318182 C74.1638258,17.9469697 73.5454545,17.2585227 73.1022727,16.3664773 C72.6590909,15.4744318 72.4375,14.4147727 72.4375,13.1875 C72.4375,12.2594697 72.5662879,11.4261364 72.8238636,10.6875 C73.0814394,9.94886364 73.4441288,9.32102273 73.9119318,8.80397727 C74.3797348,8.28693182 74.9308712,7.89109848 75.5653409,7.61647727 C76.1998106,7.34185606 76.8939394,7.20454545 77.6477273,7.20454545 C78.2765152,7.20454545 78.8626894,7.29734848 79.40625,7.48295455 C79.9498106,7.66856061 80.4346591,7.93181818 80.8607955,8.27272727 C81.2869318,8.61363636 81.6401515,9.01799242 81.9204545,9.48579545 C82.2007576,9.95359848 82.3901515,10.4715909 82.4886364,11.0397727 L80.6875,11.0397727 Z" id="Path" fill="#FFFFFF"></path>
                <polygon id="Path" fill="#FFFFFF" points="90.7954545 19 90.7954545 7.36363636 98.0909091 7.36363636 98.0909091 8.875 92.5511364 8.875 92.5511364 12.4204545 97.7102273 12.4204545 97.7102273 13.9261364 92.5511364 13.9261364 92.5511364 17.4886364 98.1590909 17.4886364 98.1590909 19"></polygon>
            </g>
        </g>
    </g>
</svg>