
<svg width="18px" height="40px" viewBox="0 0 18 40" version="1.1" xmlns="http://www.w3.org/2000/svg" xmlns:xlink="http://www.w3.org/1999/xlink">
    <g id="Consumer-web-app" stroke="none" strokeWidth="1" fill="none" fill-rule="evenodd">
        <g id="Charging-Dashboard" transform="translate(-69, -235)" fill="#FFFFFF" fill-rule="nonzero">
            <g id="battery_charging_full_FILL0_wght400_GRAD0_opsz48" transform="translate(69, 235)">
                <path d="M8.1,32 L12.6,20 L9.9,20 L9.9,12 L5.4,24 L8.1,24 L8.1,32 Z M1.35,40 C0.9675,40 0.646875,39.85625 0.388125,39.56875 C0.129375,39.28125 0,38.925 0,38.5 L0,4.7 C0,4.275 0.129375,3.91875 0.388125,3.63125 C0.646875,3.34375 0.9675,3.2 1.35,3.2 L5.4,3.2 L5.4,0 L12.6,0 L12.6,3.2 L16.65,3.2 C17.0325,3.2 17.353125,3.34375 17.611875,3.63125 C17.870625,3.91875 18,4.275 18,4.7 L18,38.5 C18,38.925 17.870625,39.28125 17.611875,39.56875 C17.353125,39.85625 17.0325,40 16.65,40 L1.35,40 Z M2.7,37 L15.3,37 L15.3,6.2 L2.7,6.2 L2.7,37 Z M2.7,37.0290541 L15.3,37.0290541 L2.7,37.0290541 Z" id="Shape"></path>
            </g>
        </g>
    </g>
</svg>