
<svg width="24px" height="40px" viewBox="0 0 24 40" version="1.1" xmlns="http://www.w3.org/2000/svg" xmlns:xlink="http://www.w3.org/1999/xlink">
    <g id="Consumer-web-app" stroke="none" strokeWidth="1" fill="none" fill-rule="evenodd">
        <g id="Charging-Dashboard" transform="translate(-66, -556)" fill="#FFFFFF" fill-rule="nonzero">
            <g id="Bolt_Outline-BLACK" transform="translate(66, 556)">
                <path d="M8.56470588,35.5555556 L20.8,18.8199234 L12.6117647,18.8199234 L14.2117647,4.44444444 L3.2,22.6819923 L10.2588235,22.6819923 L8.56470588,35.5555556 Z M7.72082423,25.1751753 L1.25908826,25.1751753 C0.783960614,25.1751753 0.403858498,24.9625022 0.21380744,24.4308195 C-0.0712691467,24.0054733 -0.0712691467,23.4737907 0.21380744,23.0484445 L13.9925091,0.717771628 C14.1825602,0.398762016 14.4676368,0.186088941 14.7527134,0.0797524031 C15.03779,-0.0265841344 15.3228665,-0.0265841344 15.7029687,0.0797524031 C15.9880453,0.186088941 16.2731218,0.398762016 16.4631729,0.824108166 C16.653224,1.14311778 16.7482495,1.46212739 16.653224,1.88747354 L14.9427644,16.7745888 L22.7348578,16.7745888 C23.305011,16.7745888 23.6851131,16.9872619 23.8751642,17.5189446 C24.0652152,18.0506272 24.0652152,18.5823099 23.6851131,19.0076561 L8.48102846,39.4242713 C8.2909774,39.7432809 8.00590082,39.8496174 7.72082423,39.955954 C7.43574764,40.0622905 7.15067106,39.955954 6.86559447,39.8496174 C6.58051788,39.7432809 6.39046682,39.5306078 6.20041577,39.2115982 C6.01036471,38.8925886 6.01036471,38.573579 6.01036471,38.1482328 C6.01036471,38.1482328 7.72082423,25.1751753 7.72082423,25.1751753 Z" id="Shape"></path>
            </g>
        </g>
    </g>
</svg>