
<svg width="48px" height="29px" viewBox="0 0 48 29" version="1.1" xmlns="http://www.w3.org/2000/svg" xmlns:xlink="http://www.w3.org/1999/xlink">
    <g id="Consumer-web-app" stroke="none" strokeWidth="1" fill="none" fill-rule="evenodd">
        <g id="Nxucharge.com" transform="translate(-360.000000, -23.000000)" fill="#808080" fill-rule="nonzero">
            <g id="USA-Flag" transform="translate(360.000000, 23.000000)">
                <path d="M47.905021,0.0242976462 L0.083106604,0.0242976462 C0.035617116,0.0242976462 0,0.0607441154 0,0.109339408 L0,15.9149582 C0,15.9392559 0.011872372,15.9514047 0.023744744,15.9757024 C0.035617116,15.9878512 0.05936186,16 0.083106604,16 L47.905021,16 C47.9525105,16 47.9881276,15.9635535 47.9881276,15.9149582 L47.9881276,13.6552771 C47.9881276,13.6309795 47.9762553,13.6188307 47.9643829,13.594533 C47.9525105,13.5823842 47.9287658,13.5702354 47.905021,13.5702354 L21.7383131,13.5702354 L21.7383131,11.468489 L47.905021,11.468489 C47.9525105,11.468489 47.9881276,11.4320425 47.9881276,11.3834472 L47.9881276,9.12376614 C47.9881276,9.09946849 47.9762553,9.08731967 47.9643829,9.06302202 C47.9525105,9.0508732 47.9287658,9.03872437 47.905021,9.03872437 L21.7383131,9.03872437 L21.7383131,6.93697798 L47.905021,6.93697798 C47.9525105,6.93697798 47.9881276,6.90053151 47.9881276,6.85193622 L47.9881276,4.59225513 C47.9881276,4.54365983 47.9525105,4.50721336 47.905021,4.50721336 L21.7501855,4.50721336 L21.7501855,2.40546697 L47.9168934,2.40546697 C47.9643829,2.40546697 48,2.3690205 48,2.32042521 L48,0.0607441154 C48,0.0364464692 47.9881276,0.0242976462 47.9762553,0 C47.9525105,0.0364464692 47.9287658,0.0242976462 47.905021,0.0242976462 Z M20.1117982,14.4813971 L20.266139,14.9430524 L19.8862231,14.6393318 C19.8624784,14.6150342 19.8149889,14.6150342 19.7912441,14.6393318 L19.4113282,14.9430524 L19.5656691,14.4813971 C19.5775414,14.4449506 19.5656691,14.4085042 19.5419243,14.3842065 L19.150136,14.1047836 L19.6250309,14.1169324 C19.660648,14.1169324 19.6962651,14.0926348 19.6962651,14.0561883 L19.8268612,13.5823842 L19.9574573,14.0561883 C19.9693297,14.0926348 19.9930744,14.1169324 20.0286916,14.1169324 L20.5035864,14.1047836 L20.1117982,14.3842065 C20.1117982,14.4085042 20.0999258,14.4449506 20.1117982,14.4813971 Z M18.3071976,12.9384966 L18.4615385,13.4001519 L18.0816226,13.0964313 C18.0578778,13.0721336 18.0103883,13.0721336 17.9866436,13.0964313 L17.6067277,13.4001519 L17.7610685,12.9384966 C17.7729409,12.9020501 17.7610685,12.8656036 17.7373238,12.841306 L17.3455355,12.5618831 L17.8204304,12.5740319 C17.8560475,12.5740319 17.8916646,12.5497342 17.8916646,12.5132878 L18.0222607,12.0394837 L18.1528568,12.5132878 C18.1647292,12.5497342 18.1884739,12.5740319 18.224091,12.5740319 C18.224091,12.5740319 18.224091,12.5740319 18.224091,12.5740319 L18.6989859,12.5618831 L18.3071976,12.841306 C18.3071976,12.8656036 18.2953253,12.9020501 18.3071976,12.9384966 Z M16.4907247,14.4813971 L16.6450655,14.9430524 L16.2651496,14.6393318 C16.2414049,14.6150342 16.1939154,14.6150342 16.1701707,14.6393318 L15.7902548,14.9430524 L15.9445956,14.4813971 C15.956468,14.4449506 15.9445956,14.4085042 15.9208509,14.3842065 L15.5290626,14.1047836 L16.0039575,14.1169324 C16.0395746,14.1169324 16.0751917,14.0926348 16.0751917,14.0561883 L16.2057878,13.5823842 L16.3363839,14.0561883 C16.3482562,14.0926348 16.372001,14.1169324 16.4076181,14.1169324 L16.882513,14.1047836 L16.4907247,14.3842065 C16.4907247,14.4085042 16.4788523,14.4449506 16.4907247,14.4813971 Z M14.6861242,12.9384966 L14.840465,13.4001519 L14.4605491,13.0964313 C14.4368044,13.0721336 14.3893149,13.0721336 14.3655701,13.0964313 L13.9856542,13.4001519 L14.1399951,12.9384966 C14.1518674,12.9020501 14.1399951,12.8656036 14.1162503,12.841306 L13.724462,12.5618831 L14.1993569,12.5740319 C14.234974,12.5740319 14.2705911,12.5497342 14.2705911,12.5132878 L14.4011872,12.0394837 L14.5317833,12.5132878 C14.5436557,12.5497342 14.5674004,12.5740319 14.6030176,12.5740319 C14.6030176,12.5740319 14.6030176,12.5740319 14.6030176,12.5740319 L15.0779124,12.5618831 L14.6861242,12.841306 C14.6861242,12.8656036 14.6742518,12.9020501 14.6861242,12.9384966 Z M12.8696512,14.4813971 L13.0239921,14.9430524 L12.6440762,14.6393318 C12.6203314,14.6150342 12.5728419,14.6150342 12.5490972,14.6393318 L12.1691813,14.9430524 L12.3235221,14.4813971 C12.3353945,14.4449506 12.3235221,14.4085042 12.2997774,14.3842065 L11.9079891,14.1047836 L12.382884,14.1169324 C12.4185011,14.1169324 12.4541182,14.0926348 12.4541182,14.0561883 L12.5847143,13.5823842 L12.7153104,14.0561883 C12.7271828,14.0926348 12.7509275,14.1169324 12.7865446,14.1169324 L13.2614395,14.1047836 L12.8696512,14.3842065 C12.8696512,14.4085042 12.8577789,14.4449506 12.8696512,14.4813971 Z M11.0650507,12.9384966 L11.2193915,13.4001519 L10.8394756,13.0964313 C10.8157309,13.0721336 10.7682414,13.0721336 10.7444967,13.0964313 L10.3645808,13.4001519 L10.5189216,12.9384966 C10.530794,12.9020501 10.5189216,12.8656036 10.4951768,12.841306 L10.1033886,12.5618831 L10.5782835,12.5740319 C10.6139006,12.5740319 10.6495177,12.5497342 10.6495177,12.5132878 L10.7801138,12.0394837 L10.9107099,12.5132878 C10.9225822,12.5497342 10.946327,12.5740319 10.9819441,12.5740319 C10.9819441,12.5740319 10.9819441,12.5740319 10.9819441,12.5740319 L11.456839,12.5618831 L11.0650507,12.841306 C11.0650507,12.8656036 11.0531783,12.9020501 11.0650507,12.9384966 Z M9.26045016,14.4813971 L9.414791,14.9430524 L9.03487509,14.6393318 C9.01113035,14.6150342 8.96364086,14.6150342 8.93989612,14.6393318 L8.55998021,14.9430524 L8.71432105,14.4813971 C8.72619342,14.4449506 8.71432105,14.4085042 8.6905763,14.3842065 L8.29878803,14.1047836 L8.77368291,14.1169324 C8.80930002,14.1169324 8.84491714,14.0926348 8.84491714,14.0561883 L8.97551323,13.5823842 L9.10610932,14.0561883 C9.1179817,14.0926348 9.15359881,14.1169324 9.17734356,14.1169324 L9.65223844,14.1047836 L9.26045016,14.3842065 C9.26045016,14.4085042 9.24857779,14.4449506 9.26045016,14.4813971 Z M7.3371259,12.9384966 L7.49146673,13.4001519 L7.11155083,13.0964313 C7.08780608,13.0721336 7.0403166,13.0721336 7.01657185,13.0964313 L6.63665595,13.4001519 L6.79099678,12.9384966 C6.80286916,12.9020501 6.79099678,12.8656036 6.76725204,12.841306 L6.37546376,12.5618831 L6.85035864,12.5740319 C6.88597576,12.5740319 6.92159288,12.5497342 6.92159288,12.5132878 L7.05218897,12.0394837 L7.18278506,12.5132878 C7.19465743,12.5497342 7.23027455,12.5740319 7.25401929,12.5740319 L7.72891417,12.5618831 L7.3371259,12.841306 C7.3371259,12.8656036 7.32525352,12.9020501 7.3371259,12.9384966 Z M5.53252535,14.4813971 L5.68686619,14.9430524 L5.30695028,14.6393318 C5.28320554,14.6150342 5.23571605,14.6150342 5.21197131,14.6393318 L4.8320554,14.9430524 L4.98639624,14.4813971 C4.99826861,14.4449506 4.98639624,14.4085042 4.9626515,14.3842065 L4.57086322,14.1047836 L5.0457581,14.1169324 C5.08137522,14.1169324 5.11699233,14.0926348 5.11699233,14.0561883 L5.24758842,13.5823842 L5.37818452,14.0561883 C5.39005689,14.0926348 5.41380163,14.1169324 5.44941875,14.1169324 L5.92431363,14.1047836 L5.53252535,14.3842065 C5.53252535,14.4085042 5.52065298,14.4449506 5.53252535,14.4813971 Z M3.7754143,12.9384966 L3.92975513,13.4001519 L3.54983923,13.0964313 C3.52609448,13.0721336 3.478605,13.0721336 3.45486025,13.0964313 L3.07494435,13.4001519 L3.22928518,12.9384966 C3.24115756,12.9020501 3.22928518,12.8656036 3.20554044,12.841306 L2.81375216,12.5618831 L3.28864704,12.5740319 C3.32426416,12.5740319 3.35988128,12.5497342 3.35988128,12.5132878 L3.49047737,12.0394837 L3.62107346,12.5132878 C3.63294583,12.5497342 3.65669058,12.5740319 3.69230769,12.5740319 C3.69230769,12.5740319 3.69230769,12.5740319 3.69230769,12.5740319 L4.16720257,12.5618831 L3.7754143,12.841306 C3.7754143,12.8656036 3.76354192,12.9020501 3.7754143,12.9384966 Z M1.97081375,14.4813971 L2.12515459,14.9430524 L1.74523868,14.6393318 C1.72149394,14.6150342 1.67400445,14.6150342 1.65025971,14.6393318 L1.2703438,14.9430524 L1.42468464,14.4813971 C1.43655701,14.4449506 1.42468464,14.4085042 1.4009399,14.3842065 L1.00915162,14.1047836 L1.4840465,14.1169324 C1.51966362,14.1169324 1.55528073,14.0926348 1.55528073,14.0561883 L1.68587682,13.5823842 L1.81647292,14.0561883 C1.82834529,14.0926348 1.8639624,14.1169324 1.88770715,14.1169324 L2.36260203,14.1047836 L1.97081375,14.3842065 C1.97081375,14.4085042 1.95894138,14.4449506 1.97081375,14.4813971 Z M1.5671531,4.5801063 L1.6977492,4.1063022 L1.82834529,4.5801063 C1.84021766,4.61655277 1.8639624,4.64085042 1.89957952,4.64085042 L2.3744744,4.62870159 L1.98268612,4.90812453 C1.95894138,4.93242217 1.94706901,4.96886864 1.95894138,5.00531511 L2.11328222,5.46697039 L1.73336631,5.16324981 C1.70962157,5.13895216 1.66213208,5.13895216 1.63838734,5.16324981 L1.25847143,5.46697039 L1.41281227,5.00531511 C1.42468464,4.96886864 1.41281227,4.93242217 1.38906752,4.90812453 L0.997279248,4.62870159 L1.47217413,4.64085042 C1.53153599,4.64085042 1.55528073,4.61655277 1.5671531,4.5801063 Z M5.1288647,4.5801063 L5.2594608,4.1063022 L5.39005689,4.5801063 C5.40192926,4.61655277 5.425674,4.64085042 5.46129112,4.64085042 L5.936186,4.62870159 L5.54439772,4.90812453 C5.52065298,4.93242217 5.50878061,4.96886864 5.52065298,5.00531511 L5.67499382,5.46697039 L5.29507791,5.16324981 C5.27133317,5.13895216 5.22384368,5.13895216 5.20009894,5.16324981 L4.82018303,5.46697039 L4.97452387,5.00531511 C4.98639624,4.96886864 4.97452387,4.93242217 4.95077912,4.90812453 L4.55899085,4.62870159 L5.03388573,4.64085042 C5.09324759,4.64085042 5.11699233,4.61655277 5.1288647,4.5801063 Z M8.85678951,4.5801063 L8.9873856,4.1063022 L9.1179817,4.5801063 C9.12985407,4.61655277 9.15359881,4.64085042 9.18921593,4.64085042 L9.66411081,4.62870159 L9.27232253,4.90812453 C9.24857779,4.93242217 9.23670542,4.96886864 9.24857779,5.00531511 L9.40291862,5.46697039 L9.03487509,5.15110099 C9.02300272,5.13895216 8.99925798,5.13895216 8.9873856,5.13895216 C8.97551323,5.13895216 8.95176849,5.13895216 8.93989612,5.15110099 L8.55998021,5.45482156 L8.71432105,4.99316629 C8.72619342,4.95671982 8.71432105,4.92027335 8.6905763,4.8959757 L8.29878803,4.61655277 L8.77368291,4.62870159 C8.8211724,4.64085042 8.84491714,4.61655277 8.85678951,4.5801063 Z M12.477863,4.5801063 L12.6084591,4.1063022 L12.7390552,4.5801063 C12.7509275,4.61655277 12.7746723,4.64085042 12.8102894,4.64085042 L13.2851843,4.62870159 L12.893396,4.90812453 C12.8696512,4.93242217 12.8577789,4.96886864 12.8696512,5.00531511 L13.0239921,5.46697039 L12.6440762,5.16324981 C12.6203314,5.13895216 12.5728419,5.13895216 12.5490972,5.16324981 L12.1691813,5.46697039 L12.3235221,5.00531511 C12.3353945,4.96886864 12.3235221,4.93242217 12.2997774,4.90812453 L11.9079891,4.62870159 L12.382884,4.64085042 C12.4303735,4.64085042 12.4659906,4.61655277 12.477863,4.5801063 Z M16.0870641,4.5801063 L16.2176602,4.1063022 L16.3482562,4.5801063 C16.3601286,4.61655277 16.3838734,4.64085042 16.4194905,4.64085042 L16.8943854,4.62870159 L16.5025971,4.90812453 C16.4788523,4.93242217 16.46698,4.96886864 16.4788523,5.00531511 L16.6331932,5.46697039 L16.277022,5.15110099 C16.2532773,5.12680334 16.2057878,5.12680334 16.182043,5.15110099 L15.8021271,5.45482156 L15.956468,4.99316629 C15.9683403,4.95671982 15.956468,4.92027335 15.9327232,4.8959757 L15.5409349,4.61655277 L16.0158298,4.62870159 C16.0514469,4.64085042 16.0870641,4.61655277 16.0870641,4.5801063 Z M16.4907247,11.2862566 L16.6450655,11.7479119 L16.2651496,11.4441913 C16.2414049,11.4198937 16.1939154,11.4198937 16.1701707,11.4441913 L15.7902548,11.7479119 L15.9445956,11.2862566 C15.956468,11.2498102 15.9445956,11.2133637 15.9208509,11.1890661 L15.5290626,10.9096431 L16.0039575,10.921792 C16.0395746,10.921792 16.0751917,10.8974943 16.0751917,10.8610478 L16.2057878,10.3872437 L16.3363839,10.8610478 C16.3482562,10.8974943 16.372001,10.921792 16.4076181,10.921792 L16.882513,10.9096431 L16.4907247,11.1890661 C16.4907247,11.2133637 16.4788523,11.2498102 16.4907247,11.2862566 Z M12.8696512,11.2862566 L13.0239921,11.7479119 L12.6440762,11.4441913 C12.6203314,11.4198937 12.5728419,11.4198937 12.5490972,11.4441913 L12.1691813,11.7479119 L12.3235221,11.2862566 C12.3353945,11.2498102 12.3235221,11.2133637 12.2997774,11.1890661 L11.9079891,10.9096431 L12.382884,10.921792 C12.4185011,10.921792 12.4541182,10.8974943 12.4541182,10.8610478 L12.5847143,10.3872437 L12.7153104,10.8610478 C12.7271828,10.8974943 12.7509275,10.921792 12.7865446,10.921792 L13.2614395,10.9096431 L12.8696512,11.1890661 C12.8696512,11.2133637 12.8577789,11.2498102 12.8696512,11.2862566 Z M9.26045016,11.2862566 L9.414791,11.7479119 L9.03487509,11.4441913 C9.01113035,11.4198937 8.96364086,11.4198937 8.93989612,11.4441913 L8.55998021,11.7479119 L8.71432105,11.2862566 C8.72619342,11.2498102 8.71432105,11.2133637 8.6905763,11.1890661 L8.29878803,10.9096431 L8.77368291,10.921792 C8.80930002,10.921792 8.84491714,10.8974943 8.84491714,10.8610478 L8.97551323,10.3872437 L9.10610932,10.8610478 C9.1179817,10.8974943 9.14172644,10.921792 9.17734356,10.921792 L9.65223844,10.9096431 L9.26045016,11.1890661 C9.26045016,11.2133637 9.24857779,11.2498102 9.26045016,11.2862566 Z M5.53252535,11.2862566 L5.68686619,11.7479119 L5.30695028,11.4441913 C5.28320554,11.4198937 5.23571605,11.4198937 5.21197131,11.4441913 L4.8320554,11.7479119 L4.98639624,11.2862566 C4.99826861,11.2498102 4.98639624,11.2133637 4.9626515,11.1890661 L4.57086322,10.9096431 L5.0457581,10.921792 C5.08137522,10.921792 5.11699233,10.8974943 5.11699233,10.8610478 L5.24758842,10.3872437 L5.37818452,10.8610478 C5.39005689,10.8974943 5.41380163,10.921792 5.44941875,10.921792 L5.92431363,10.9096431 L5.53252535,11.1890661 C5.53252535,11.2133637 5.52065298,11.2498102 5.53252535,11.2862566 Z M1.97081375,11.2862566 L2.12515459,11.7479119 L1.74523868,11.4441913 C1.73336631,11.4320425 1.70962157,11.4320425 1.6977492,11.4320425 C1.68587682,11.4320425 1.66213208,11.4320425 1.65025971,11.4441913 L1.2703438,11.7479119 L1.42468464,11.2862566 C1.43655701,11.2498102 1.42468464,11.2133637 1.4009399,11.1890661 L1.00915162,10.9096431 L1.4840465,10.921792 C1.51966362,10.921792 1.55528073,10.8974943 1.55528073,10.8610478 L1.68587682,10.3872437 L1.81647292,10.8610478 C1.82834529,10.8974943 1.85209003,10.921792 1.88770715,10.921792 L2.36260203,10.9096431 L1.97081375,11.1890661 C1.97081375,11.2133637 1.95894138,11.2498102 1.97081375,11.2862566 Z M3.37175365,6.23234624 L3.50234974,5.75854214 L3.63294583,6.23234624 C3.6448182,6.26879271 3.68043532,6.29309036 3.70418006,6.29309036 L4.17907494,6.28094153 L3.78728667,6.56036446 C3.76354192,6.58466211 3.75166955,6.62110858 3.76354192,6.65755505 L3.91788276,7.11921033 L3.53796686,6.81548975 C3.51422211,6.7911921 3.46673262,6.7911921 3.44298788,6.81548975 L3.06307198,7.11921033 L3.21741281,6.65755505 C3.22928518,6.62110858 3.21741281,6.58466211 3.19366807,6.56036446 L2.80187979,6.28094153 L3.27677467,6.29309036 C3.33613653,6.29309036 3.35988128,6.26879271 3.37175365,6.23234624 Z M6.93346525,6.23234624 L7.06406134,5.75854214 L7.19465743,6.23234624 C7.2065298,6.26879271 7.24214692,6.29309036 7.26589166,6.29309036 L7.74078654,6.28094153 L7.34899827,6.56036446 C7.32525352,6.58466211 7.31338115,6.62110858 7.32525352,6.65755505 L7.47959436,7.11921033 L7.09967846,6.81548975 C7.07593371,6.7911921 7.02844422,6.7911921 7.00469948,6.81548975 L6.62478358,7.11921033 L6.77912441,6.65755505 C6.79099678,6.62110858 6.77912441,6.58466211 6.75537967,6.56036446 L6.36359139,6.28094153 L6.83848627,6.29309036 C6.89784813,6.29309036 6.93346525,6.26879271 6.93346525,6.23234624 Z M10.6613901,6.23234624 L10.7919861,5.75854214 L10.9225822,6.23234624 C10.9344546,6.26879271 10.9581994,6.29309036 10.9938165,6.29309036 L11.4687114,6.28094153 L11.0769231,6.56036446 C11.0531783,6.58466211 11.041306,6.62110858 11.0531783,6.65755505 L11.2075192,7.11921033 L10.8276033,6.81548975 C10.8038585,6.7911921 10.756369,6.7911921 10.7326243,6.81548975 L10.3527084,7.11921033 L10.5070492,6.65755505 C10.5189216,6.62110858 10.5070492,6.58466211 10.4833045,6.56036446 L10.0915162,6.28094153 L10.5664111,6.29309036 C10.6257729,6.29309036 10.6495177,6.26879271 10.6613901,6.23234624 Z M14.2824635,6.23234624 L14.4130596,5.75854214 L14.5436557,6.23234624 C14.5555281,6.26879271 14.5792728,6.29309036 14.6148899,6.29309036 L15.0897848,6.28094153 L14.6979965,6.56036446 C14.6742518,6.58466211 14.6623794,6.62110858 14.6742518,6.65755505 L14.8285926,7.11921033 L14.4486767,6.81548975 C14.424932,6.7911921 14.3774425,6.7911921 14.3536977,6.81548975 L13.9737818,7.11921033 L14.1281227,6.65755505 C14.1399951,6.62110858 14.1281227,6.58466211 14.1043779,6.56036446 L13.7125897,6.28094153 L14.1874845,6.29309036 C14.2468464,6.29309036 14.2705911,6.26879271 14.2824635,6.23234624 Z M17.903537,6.23234624 L18.0341331,5.75854214 L18.1647292,6.23234624 C18.1766015,6.26879271 18.2003463,6.29309036 18.2359634,6.29309036 L18.7108583,6.28094153 L18.31907,6.56036446 C18.2953253,6.58466211 18.2834529,6.62110858 18.2953253,6.65755505 L18.4496661,7.11921033 L18.0697502,6.81548975 C18.0460054,6.7911921 17.998516,6.7911921 17.9747712,6.81548975 L17.5948553,7.11921033 L17.7491961,6.65755505 C17.7610685,6.62110858 17.7491961,6.58466211 17.7254514,6.56036446 L17.3336631,6.28094153 L17.808558,6.29309036 C17.8679199,6.29309036 17.8916646,6.26879271 17.903537,6.23234624 Z M18.3071976,9.73120729 L18.4615385,10.1928626 L18.0816226,9.88914199 C18.0578778,9.86484434 18.0103883,9.86484434 17.9866436,9.88914199 L17.6067277,10.1928626 L17.7610685,9.73120729 C17.7729409,9.69476082 17.7610685,9.65831435 17.7373238,9.6340167 L17.3455355,9.35459377 L17.8204304,9.3667426 C17.8560475,9.3667426 17.8916646,9.34244495 17.8916646,9.30599848 L18.0222607,8.83219438 L18.1528568,9.30599848 C18.1647292,9.34244495 18.1884739,9.3667426 18.224091,9.3667426 C18.224091,9.3667426 18.224091,9.3667426 18.224091,9.3667426 L18.6989859,9.35459377 L18.3071976,9.6340167 C18.3071976,9.67046317 18.2953253,9.70690964 18.3071976,9.73120729 Z M14.6861242,9.73120729 L14.840465,10.1928626 L14.4605491,9.88914199 C14.4368044,9.86484434 14.3893149,9.86484434 14.3655701,9.88914199 L13.9856542,10.1928626 L14.1399951,9.73120729 C14.1518674,9.69476082 14.1399951,9.65831435 14.1162503,9.6340167 L13.724462,9.35459377 L14.1993569,9.3667426 C14.234974,9.3667426 14.2705911,9.34244495 14.2705911,9.30599848 L14.4011872,8.83219438 L14.5317833,9.30599848 C14.5436557,9.34244495 14.5674004,9.3667426 14.6030176,9.3667426 C14.6030176,9.3667426 14.6030176,9.3667426 14.6030176,9.3667426 L15.0779124,9.35459377 L14.6861242,9.6340167 C14.6861242,9.65831435 14.6742518,9.70690964 14.6861242,9.73120729 Z M11.0650507,9.73120729 L11.2193915,10.1928626 L10.8394756,9.88914199 C10.8157309,9.86484434 10.7682414,9.86484434 10.7444967,9.88914199 L10.3645808,10.1928626 L10.5189216,9.73120729 C10.530794,9.69476082 10.5189216,9.65831435 10.4951768,9.6340167 L10.1033886,9.35459377 L10.5782835,9.3667426 C10.6139006,9.3667426 10.6495177,9.34244495 10.6495177,9.30599848 L10.7801138,8.83219438 L10.9107099,9.30599848 C10.9225822,9.34244495 10.946327,9.3667426 10.9819441,9.3667426 C10.9819441,9.3667426 10.9819441,9.3667426 10.9819441,9.3667426 L11.456839,9.35459377 L11.0650507,9.6340167 C11.0650507,9.65831435 11.0531783,9.70690964 11.0650507,9.73120729 Z M7.3371259,9.73120729 L7.49146673,10.1928626 L7.11155083,9.88914199 C7.08780608,9.86484434 7.0403166,9.86484434 7.01657185,9.88914199 L6.63665595,10.1928626 L6.79099678,9.73120729 C6.80286916,9.69476082 6.79099678,9.65831435 6.76725204,9.6340167 L6.37546376,9.35459377 L6.85035864,9.3667426 C6.88597576,9.3667426 6.92159288,9.34244495 6.92159288,9.30599848 L7.05218897,8.83219438 L7.18278506,9.30599848 C7.19465743,9.34244495 7.21840218,9.3667426 7.25401929,9.3667426 C7.25401929,9.3667426 7.25401929,9.3667426 7.25401929,9.3667426 L7.72891417,9.35459377 L7.37274301,9.64616553 C7.3371259,9.67046317 7.32525352,9.70690964 7.3371259,9.73120729 Z M3.7754143,9.73120729 L3.92975513,10.1928626 L3.54983923,9.88914199 C3.53796686,9.87699317 3.51422211,9.87699317 3.50234974,9.87699317 C3.49047737,9.87699317 3.46673262,9.87699317 3.45486025,9.88914199 L3.07494435,10.1928626 L3.22928518,9.73120729 C3.24115756,9.69476082 3.22928518,9.65831435 3.20554044,9.6340167 L2.81375216,9.35459377 L3.28864704,9.3667426 C3.32426416,9.3667426 3.35988128,9.34244495 3.35988128,9.30599848 L3.49047737,8.83219438 L3.62107346,9.30599848 C3.63294583,9.34244495 3.65669058,9.3667426 3.69230769,9.3667426 C3.69230769,9.3667426 3.69230769,9.3667426 3.69230769,9.3667426 L4.16720257,9.35459377 L3.7754143,9.6340167 C3.7754143,9.65831435 3.76354192,9.70690964 3.7754143,9.73120729 Z M5.1288647,7.77524677 L5.2594608,7.30144267 L5.39005689,7.77524677 C5.40192926,7.81169324 5.425674,7.83599089 5.46129112,7.83599089 L5.936186,7.82384207 L5.54439772,8.103265 C5.52065298,8.12756264 5.50878061,8.16400911 5.52065298,8.20045558 L5.67499382,8.66211086 L5.29507791,8.35839028 C5.27133317,8.33409263 5.22384368,8.33409263 5.20009894,8.35839028 L4.82018303,8.66211086 L4.97452387,8.20045558 C4.98639624,8.16400911 4.97452387,8.12756264 4.95077912,8.103265 L4.55899085,7.82384207 L5.03388573,7.83599089 C5.09324759,7.83599089 5.11699233,7.81169324 5.1288647,7.77524677 Z M8.85678951,7.77524677 L8.9873856,7.30144267 L9.1179817,7.77524677 C9.12985407,7.81169324 9.16547118,7.83599089 9.18921593,7.83599089 L9.66411081,7.82384207 L9.27232253,8.103265 C9.24857779,8.12756264 9.23670542,8.16400911 9.24857779,8.20045558 L9.40291862,8.66211086 L9.02300272,8.35839028 C8.99925798,8.33409263 8.95176849,8.33409263 8.92802374,8.35839028 L8.54810784,8.66211086 L8.70244868,8.20045558 C8.71432105,8.16400911 8.70244868,8.12756264 8.67870393,8.103265 L8.28691566,7.82384207 L8.76181054,7.83599089 C8.80930002,7.83599089 8.84491714,7.81169324 8.85678951,7.77524677 Z M12.477863,7.77524677 L12.6084591,7.30144267 L12.7390552,7.77524677 C12.7509275,7.81169324 12.7746723,7.83599089 12.8102894,7.83599089 L13.2851843,7.82384207 L12.893396,8.103265 C12.8696512,8.12756264 12.8577789,8.16400911 12.8696512,8.20045558 L13.0239921,8.66211086 L12.6440762,8.35839028 C12.6203314,8.33409263 12.5728419,8.33409263 12.5490972,8.35839028 L12.1691813,8.66211086 L12.3235221,8.20045558 C12.3353945,8.16400911 12.3235221,8.12756264 12.2997774,8.103265 L11.9079891,7.82384207 L12.382884,7.83599089 C12.4303735,7.83599089 12.4659906,7.81169324 12.477863,7.77524677 Z M16.0870641,7.77524677 L16.2176602,7.30144267 L16.3482562,7.77524677 C16.3601286,7.81169324 16.3838734,7.83599089 16.4194905,7.83599089 L16.8943854,7.82384207 L16.5025971,8.103265 C16.4788523,8.12756264 16.46698,8.16400911 16.4788523,8.20045558 L16.6331932,8.66211086 L16.2532773,8.35839028 C16.2295325,8.33409263 16.182043,8.33409263 16.1582983,8.35839028 L15.7783824,8.66211086 L15.9327232,8.20045558 C15.9445956,8.16400911 15.9327232,8.12756264 15.9089785,8.103265 L15.5171902,7.82384207 L15.9920851,7.83599089 C16.0514469,7.83599089 16.0870641,7.81169324 16.0870641,7.77524677 Z M1.5671531,7.77524677 L1.6977492,7.30144267 L1.82834529,7.77524677 C1.84021766,7.81169324 1.87583478,7.83599089 1.89957952,7.83599089 L2.3744744,7.82384207 L1.98268612,8.103265 C1.95894138,8.12756264 1.94706901,8.16400911 1.95894138,8.20045558 L2.11328222,8.66211086 L1.73336631,8.35839028 C1.70962157,8.33409263 1.66213208,8.33409263 1.63838734,8.35839028 L1.25847143,8.66211086 L1.41281227,8.20045558 C1.42468464,8.16400911 1.41281227,8.12756264 1.38906752,8.103265 L0.997279248,7.82384207 L1.47217413,7.83599089 C1.51966362,7.83599089 1.55528073,7.81169324 1.5671531,7.77524677 Z M20.1474153,11.1890661 C20.1236705,11.2133637 20.1117982,11.2498102 20.1236705,11.2862566 L20.2780114,11.7479119 L19.8980955,11.4441913 C19.8862231,11.4320425 19.8624784,11.4320425 19.850606,11.4320425 C19.8387336,11.4320425 19.8149889,11.4320425 19.8031165,11.4441913 L19.4232006,11.7479119 L19.5775414,11.2862566 C19.5894138,11.2498102 19.5775414,11.2133637 19.5537967,11.1890661 L19.1620084,10.9096431 L19.6369033,10.921792 C19.6725204,10.921792 19.7081375,10.8974943 19.7081375,10.8610478 L19.8387336,10.3872437 L19.9693297,10.8610478 C19.9812021,10.8974943 20.0049468,10.921792 20.0405639,10.921792 L20.5154588,10.9096431 L20.1474153,11.1890661 Z M20.1474153,8.103265 C20.1236705,8.12756264 20.1117982,8.16400911 20.1236705,8.20045558 L20.2780114,8.66211086 L19.8980955,8.35839028 C19.8743507,8.33409263 19.8268612,8.33409263 19.8031165,8.35839028 L19.4232006,8.66211086 L19.5775414,8.20045558 C19.5894138,8.16400911 19.5775414,8.12756264 19.5537967,8.103265 L19.1620084,7.82384207 L19.6369033,7.83599089 C19.6725204,7.83599089 19.7081375,7.81169324 19.7081375,7.77524677 L19.8387336,7.30144267 L19.9693297,7.77524677 C19.9812021,7.81169324 20.0049468,7.83599089 20.0405639,7.83599089 L20.5154588,7.82384207 L20.1474153,8.103265 Z M20.1474153,4.8959757 C20.1236705,4.92027335 20.1117982,4.95671982 20.1236705,4.99316629 L20.2780114,5.45482156 L19.8980955,5.15110099 C19.8862231,5.13895216 19.8624784,5.13895216 19.850606,5.13895216 C19.8387336,5.13895216 19.8149889,5.13895216 19.8031165,5.15110099 L19.4232006,5.45482156 L19.5775414,4.99316629 C19.5894138,4.95671982 19.5775414,4.92027335 19.5537967,4.8959757 L19.1620084,4.61655277 L19.6369033,4.62870159 C19.6725204,4.62870159 19.7081375,4.60440395 19.7081375,4.56795748 L19.8387336,4.09415338 L19.9693297,4.56795748 C19.9812021,4.60440395 20.0049468,4.62870159 20.0405639,4.62870159 L20.5154588,4.61655277 L20.1474153,4.8959757 Z M20.1474153,1.81017464 C20.1236705,1.83447229 20.1117982,1.87091875 20.1236705,1.90736522 L20.2780114,2.3690205 L19.8980955,2.06529992 C19.8862231,2.0531511 19.8624784,2.0531511 19.850606,2.0531511 C19.8387336,2.0531511 19.8149889,2.0531511 19.8031165,2.06529992 L19.4232006,2.3690205 L19.5775414,1.90736522 C19.5894138,1.87091875 19.5775414,1.83447229 19.5537967,1.81017464 L19.1620084,1.53075171 L19.6369033,1.54290053 C19.6725204,1.54290053 19.7081375,1.51860289 19.7081375,1.48215642 L19.8387336,1.00835232 L19.9693297,1.48215642 C19.9812021,1.51860289 20.0049468,1.53075171 20.0405639,1.54290053 L20.5154588,1.53075171 L20.1474153,1.81017464 Z M18.3309424,3.35307517 C18.3071976,3.37737282 18.2953253,3.41381929 18.3071976,3.45026576 L18.4615385,3.91192103 L18.0816226,3.60820046 C18.0578778,3.58390281 18.0103883,3.58390281 17.9866436,3.60820046 L17.6067277,3.91192103 L17.7610685,3.45026576 C17.7729409,3.41381929 17.7610685,3.37737282 17.7373238,3.35307517 L17.3455355,3.07365224 L17.8204304,3.08580106 C17.8560475,3.08580106 17.8916646,3.06150342 17.8916646,3.02505695 L18.0222607,2.55125285 L18.1528568,3.02505695 C18.1647292,3.06150342 18.1884739,3.08580106 18.224091,3.08580106 L18.6989859,3.07365224 L18.3309424,3.35307517 Z M16.5263418,1.81017464 C16.5025971,1.83447229 16.4907247,1.87091875 16.5025971,1.90736522 L16.6569379,2.3690205 L16.277022,2.06529992 C16.2532773,2.04100228 16.2057878,2.04100228 16.182043,2.06529992 L15.8021271,2.3690205 L15.956468,1.90736522 C15.9683403,1.87091875 15.956468,1.83447229 15.9327232,1.81017464 L15.5409349,1.53075171 L16.0158298,1.54290053 C16.0514469,1.54290053 16.0870641,1.51860289 16.0870641,1.48215642 L16.2176602,1.00835232 L16.3482562,1.48215642 C16.3601286,1.51860289 16.3838734,1.53075171 16.4194905,1.54290053 L16.8943854,1.53075171 L16.5263418,1.81017464 Z M14.7098689,3.35307517 C14.6861242,3.37737282 14.6742518,3.41381929 14.6861242,3.45026576 L14.840465,3.91192103 L14.4605491,3.60820046 C14.4368044,3.58390281 14.3893149,3.58390281 14.3655701,3.60820046 L13.9856542,3.91192103 L14.1399951,3.45026576 C14.1518674,3.41381929 14.1399951,3.37737282 14.1162503,3.35307517 L13.724462,3.07365224 L14.1993569,3.08580106 C14.234974,3.08580106 14.2705911,3.06150342 14.2705911,3.02505695 L14.4011872,2.55125285 L14.5317833,3.02505695 C14.5436557,3.06150342 14.5792728,3.08580106 14.6030176,3.08580106 L15.0779124,3.07365224 L14.7098689,3.35307517 Z M12.9052684,1.81017464 C12.8815236,1.83447229 12.8696512,1.87091875 12.8815236,1.90736522 L13.0358645,2.3690205 L12.6559486,2.06529992 C12.6322038,2.04100228 12.5847143,2.04100228 12.5609696,2.06529992 L12.1810537,2.3690205 L12.3353945,1.90736522 C12.3472669,1.87091875 12.3353945,1.83447229 12.3116498,1.81017464 L11.9198615,1.53075171 L12.3947564,1.54290053 C12.4303735,1.54290053 12.4659906,1.51860289 12.4659906,1.48215642 L12.5965867,1.00835232 L12.7271828,1.48215642 C12.7390552,1.51860289 12.7627999,1.53075171 12.798417,1.54290053 L13.2733119,1.53075171 L12.9052684,1.81017464 Z M11.1006678,3.35307517 C11.0769231,3.37737282 11.0650507,3.41381929 11.0769231,3.45026576 L11.2312639,3.91192103 L10.851348,3.60820046 C10.8276033,3.58390281 10.7801138,3.58390281 10.756369,3.60820046 L10.3764531,3.91192103 L10.530794,3.45026576 C10.5426663,3.41381929 10.530794,3.37737282 10.5070492,3.35307517 L10.1152609,3.07365224 L10.5901558,3.08580106 C10.6257729,3.08580106 10.6613901,3.06150342 10.6613901,3.02505695 L10.7919861,2.55125285 L10.9225822,3.02505695 C10.9344546,3.06150342 10.9581994,3.08580106 10.9938165,3.08580106 L11.4687114,3.07365224 L11.1006678,3.35307517 Z M9.2841949,1.81017464 C9.26045016,1.83447229 9.24857779,1.87091875 9.26045016,1.90736522 L9.414791,2.3690205 L9.03487509,2.06529992 C9.01113035,2.04100228 8.96364086,2.04100228 8.93989612,2.06529992 L8.55998021,2.3690205 L8.71432105,1.90736522 C8.72619342,1.87091875 8.71432105,1.83447229 8.6905763,1.81017464 L8.29878803,1.53075171 L8.77368291,1.54290053 C8.80930002,1.54290053 8.84491714,1.51860289 8.84491714,1.48215642 L8.97551323,1.00835232 L9.10610932,1.48215642 C9.1179817,1.51860289 9.14172644,1.53075171 9.17734356,1.54290053 L9.65223844,1.53075171 L9.2841949,1.81017464 Z M7.37274301,3.35307517 C7.34899827,3.37737282 7.3371259,3.41381929 7.34899827,3.45026576 L7.5033391,3.91192103 L7.1234232,3.60820046 C7.09967846,3.58390281 7.05218897,3.58390281 7.02844422,3.60820046 L6.64852832,3.91192103 L6.80286916,3.45026576 C6.81474153,3.41381929 6.80286916,3.37737282 6.77912441,3.35307517 L6.38733614,3.07365224 L6.86223102,3.08580106 C6.89784813,3.08580106 6.93346525,3.06150342 6.93346525,3.02505695 L7.06406134,2.55125285 L7.19465743,3.02505695 C7.2065298,3.06150342 7.24214692,3.08580106 7.26589166,3.08580106 L7.74078654,3.07365224 L7.37274301,3.35307517 Z M5.5562701,1.81017464 C5.53252535,1.83447229 5.52065298,1.87091875 5.53252535,1.90736522 L5.68686619,2.3690205 L5.30695028,2.06529992 C5.28320554,2.04100228 5.23571605,2.04100228 5.21197131,2.06529992 L4.8320554,2.3690205 L4.98639624,1.90736522 C4.99826861,1.87091875 4.98639624,1.83447229 4.9626515,1.81017464 L4.57086322,1.53075171 L5.0457581,1.54290053 C5.08137522,1.54290053 5.11699233,1.51860289 5.11699233,1.48215642 L5.24758842,1.00835232 L5.37818452,1.48215642 C5.39005689,1.51860289 5.41380163,1.54290053 5.44941875,1.54290053 C5.44941875,1.54290053 5.44941875,1.54290053 5.44941875,1.54290053 L5.92431363,1.53075171 L5.5562701,1.81017464 Z M3.79915904,3.35307517 C3.7754143,3.37737282 3.76354192,3.41381929 3.7754143,3.45026576 L3.92975513,3.91192103 L3.54983923,3.60820046 C3.52609448,3.58390281 3.478605,3.58390281 3.45486025,3.60820046 L3.07494435,3.91192103 L3.22928518,3.45026576 C3.24115756,3.41381929 3.22928518,3.37737282 3.20554044,3.35307517 L2.81375216,3.07365224 L3.28864704,3.08580106 C3.32426416,3.08580106 3.35988128,3.06150342 3.35988128,3.02505695 L3.49047737,2.55125285 L3.62107346,3.02505695 C3.63294583,3.06150342 3.65669058,3.08580106 3.69230769,3.08580106 L4.16720257,3.07365224 L3.79915904,3.35307517 Z M1.9945585,1.81017464 C1.97081375,1.83447229 1.95894138,1.87091875 1.97081375,1.90736522 L2.12515459,2.3690205 L1.74523868,2.06529992 C1.72149394,2.04100228 1.67400445,2.04100228 1.65025971,2.06529992 L1.2703438,2.3690205 L1.42468464,1.90736522 C1.43655701,1.87091875 1.42468464,1.83447229 1.4009399,1.81017464 L1.00915162,1.53075171 L1.4840465,1.54290053 C1.51966362,1.54290053 1.55528073,1.51860289 1.55528073,1.48215642 L1.68587682,1.00835232 L1.81647292,1.48215642 C1.82834529,1.51860289 1.85209003,1.53075171 1.88770715,1.54290053 L2.36260203,1.53075171 L1.9945585,1.81017464 Z" id="Shape"></path>
                <path d="M47.9168728,18 L0.0831271648,18 C0.0356259278,18 0,18.03 0,18.07 L0,19.93 C0,19.95 0.0118753093,19.96 0.0237506185,19.98 C0.0356259278,19.99 0.0593765463,20 0.0831271648,20 L47.9168728,20 C47.9643741,20 48,19.97 48,19.93 L48,18.07 C48,18.05 47.9881247,18.04 47.9762494,18.02 C47.9643741,18 47.9406235,18 47.9168728,18 Z" id="Path"></path>
                <path d="M47.9168728,22 L0.0831271648,22 C0.0356259278,22 0,22.03 0,22.07 L0,23.93 C0,23.95 0.0118753093,23.96 0.0237506185,23.98 C0.0356259278,23.99 0.0593765463,24 0.0831271648,24 L47.9168728,24 C47.9643741,24 48,23.97 48,23.93 L48,22.07 C48,22.05 47.9881247,22.04 47.9762494,22.02 C47.9643741,22.01 47.9406235,22 47.9168728,22 Z" id="Path"></path>
                <path d="M47.9168728,27 L0.0831271648,27 C0.0356259278,27 0,27.03 0,27.07 L0,28.93 C0,28.95 0.0118753093,28.96 0.0237506185,28.98 C0.0356259278,28.99 0.0593765463,29 0.0831271648,29 L47.9168728,29 C47.9643741,29 48,28.97 48,28.93 L48,27.07 C48,27.05 47.9881247,27.04 47.9762494,27.02 C47.9643741,27.01 47.9406235,27 47.9168728,27 Z" id="Path"></path>
            </g>
        </g>
    </g>
</svg>