
<svg width="80px" height="29.0983949px" viewBox="0 0 80 29.0983949" version="1.1" xmlns="http://www.w3.org/2000/svg" xmlns:xlink="http://www.w3.org/1999/xlink">
    <g id="Consumer-web-app" stroke="none" strokeWidth="1" fill="none" fill-rule="evenodd">
        <g id="Nxucharge.com" transform="translate(-20.000000, -23.000000)" fill="#FFFFFF" fill-rule="nonzero">
            <g id="nxu-Logo-Black" transform="translate(20.000000, 23.000000)">
                <path d="M32.1721475,3.15616703 C30.8168881,1.18127335 28.5733845,0.00305238591 26.1772615,0.00305238591 L2.90892377,0.00305238591 C1.30336878,0.00305238591 0,1.30642117 0,2.91197616 L0,28.2223601 C0,28.7046371 0.390705396,29.0953425 0.872982369,29.0953425 L7.85378894,29.0953425 C8.33606591,29.0953425 8.72677131,28.7046371 8.72677131,28.2223601 L8.72677131,9.60280606 C8.72677131,9.12052909 9.1174767,8.72982369 9.59975368,8.72982369 L24.6480162,8.72982369 C25.1272408,8.72982369 25.5759415,8.96485741 25.8476039,9.36166758 L28.8480992,13.7265794 C29.1899664,14.2241183 29.1899664,14.8773289 28.8480992,15.3748678 L20.0419659,28.1857315 C19.8588227,28.451289 19.9259752,28.8114706 20.1915328,28.9946137 C20.2892091,29.0617662 20.4021474,29.0983949 20.5211905,29.0983949 L29.2388046,29.0983949 C29.7180292,29.0983949 30.1667299,28.8633611 30.4383923,28.466551 L38.3043907,17.0231562 C39.32694,15.5335919 39.32694,13.5678554 38.3043907,12.078291 L32.1721475,3.15616703 Z" id="Path"></path>
                <path d="M79.1300523,0.00305238591 L72.1492457,0.00305238591 C71.6669687,0.00305238591 71.2762633,0.393757782 71.2762633,0.876034755 L71.2762633,19.4955888 C71.2762633,19.9778658 70.8855579,20.3685712 70.4032809,20.3685712 L55.3550184,20.3685712 C54.8757938,20.3685712 54.4270931,20.1335374 54.1554308,19.7367273 L51.1549354,15.3718154 C50.8130682,14.8742765 50.8130682,14.2210659 51.1549354,13.723527 L59.9610688,0.912663386 C60.1442119,0.647105812 60.0770594,0.286924275 59.8115018,0.103781121 C59.7138255,0.0366286309 59.6008872,0 59.4818442,0 L50.7611776,0 C50.281953,0 49.8332523,0.235033715 49.56159,0.631843883 L41.6955915,12.0752386 C40.6730422,13.564803 40.6730422,15.5305395 41.6955915,17.0201038 L47.8278348,25.9422278 C49.1830941,27.9171215 51.4265978,29.0953425 53.8227207,29.0953425 L77.0910585,29.0953425 C78.6966135,29.0953425 80,27.7919737 80,26.1864187 L80,0.872982369 C80.0030346,0.393757782 79.6123292,0.00305238591 79.1300523,0.00305238591 Z" id="Path"></path>
            </g>
        </g>
    </g>
</svg>