<svg xmlns="http://www.w3.org/2000/svg" xmlns:xlink="http://www.w3.org/1999/xlink" version="1.1" id="Layer_4" x="0px" y="0px" style="enable-background:new 0 0 248 128;" xml:space="preserve" viewBox="16.4 14.4 215.9 98.1">
<style type="text/css">
	.st0{fill:#FFFFFF;}
	.st1{fill:url(#SVGID_1_);}
	.st2{fill:#9A722B;}
</style>
<path class="st0" d="M74.2,112.5H21c-2.5,0-4.6-2.1-4.6-4.6V60.2c0-2.5,2.1-4.6,4.6-4.6h53.2c2.5,0,4.6,2.1,4.6,4.6v47.7  C78.8,110.4,76.8,112.5,74.2,112.5z M61.7,70.5H33.5c-0.8,0-1.4,0.6-1.4,1.4v24.3c0,0.8,0.6,1.4,1.4,1.4h28.2c0.8,0,1.4-0.6,1.4-1.4  V71.9C63.1,71.1,62.5,70.5,61.7,70.5z"/>
<g>
	<path class="st0" d="M111,17.6c-1.4-2-3.6-3.2-6-3.2l-23.2,0c-1.6,0-2.9,1.3-2.9,2.9l0,25.3c0,0.5,0.4,0.9,0.9,0.9l7,0   c0.5,0,0.9-0.4,0.9-0.9l0-18.6c0-0.5,0.4-0.9,0.9-0.9l15,0c0.5,0,0.9,0.2,1.2,0.6l3,4.4c0.3,0.5,0.3,1.2,0,1.6l-8.8,12.8   c-0.2,0.3-0.1,0.6,0.1,0.8c0.1,0.1,0.2,0.1,0.3,0.1l8.7,0c0.5,0,0.9-0.2,1.2-0.6l7.9-11.4c1-1.5,1-3.5,0-4.9L111,17.6z"/>
	<path class="st0" d="M157.9,14.5l-7,0c-0.5,0-0.9,0.4-0.9,0.9l0,18.6c0,0.5-0.4,0.9-0.9,0.9l-15,0c-0.5,0-0.9-0.2-1.2-0.6l-3-4.4   c-0.3-0.5-0.3-1.2,0-1.6l8.8-12.8c0.2-0.3,0.1-0.6-0.1-0.8c-0.1-0.1-0.2-0.1-0.3-0.1l-8.7,0c-0.5,0-0.9,0.2-1.2,0.6l-7.9,11.4   c-1,1.5-1,3.5,0,4.9l6.1,8.9c1.4,2,3.6,3.2,6,3.2l23.2,0c1.6,0,2.9-1.3,2.9-2.9l0-25.3C158.7,14.9,158.3,14.5,157.9,14.5z"/>
</g>
<path class="st0" d="M118.3,70l9.3-13.6c0.2-0.3,0-0.8-0.4-0.8H88.7c-0.6,0-1.1,0.5-1.1,1.1l0,54.4c0,0.6,0.5,1.1,1.1,1.1h13.4  c0.6,0,1.1-0.5,1.1-1.1l-0.1-40.4c0-0.1,0.1-0.3,0.2-0.3h14C117.8,70.5,118.1,70.3,118.3,70z"/>
<g>
	<linearGradient id="SVGID_1_" gradientUnits="userSpaceOnUse" x1="128.1812" y1="108.4299" x2="158.2974" y2="49.7033">
		<stop offset="0.1622" style="stop-color:#5D4218"/>
		<stop offset="0.2619" style="stop-color:#6D4F1E"/>
		<stop offset="0.5381" style="stop-color:#9A722B"/>
		<stop offset="0.6061" style="stop-color:#9D752D"/>
		<stop offset="0.6843" style="stop-color:#A57D35"/>
		<stop offset="0.7677" style="stop-color:#B28B44"/>
		<stop offset="0.8546" style="stop-color:#C7A25F"/>
		<stop offset="0.9434" style="stop-color:#E3C282"/>
		<stop offset="1" style="stop-color:#FFE0A0"/>
	</linearGradient>
	<path class="st1" d="M135.4,112c-0.5,0-0.9-0.4-0.9-0.9V70.7c0-0.3-0.2-0.5-0.5-0.5h-8.8c-0.1,0-0.2,0-0.2-0.1c0,0-0.1-0.1,0-0.3   l9.3-13.6c0.2-0.2,0.4-0.4,0.7-0.4h10.3c2.4,0,4.3,2,4.3,4.4v50.9c0,0.5-0.4,0.9-0.9,0.9H135.4z"/>
	<path class="st2" d="M145.3,56.1c2.3,0,4.1,1.8,4.1,4.1v50.9c0,0.4-0.3,0.6-0.6,0.6h-13.4c-0.4,0-0.6-0.3-0.6-0.6V70.7   c0-0.4-0.3-0.8-0.8-0.8h-8.8l9.3-13.6c0.1-0.2,0.3-0.3,0.5-0.3H145.3 M145.3,55.6H135c-0.4,0-0.7,0.2-0.9,0.5l-9.3,13.6   c-0.2,0.3,0,0.8,0.4,0.8h8.8c0.1,0,0.2,0.1,0.2,0.2v40.4c0,0.6,0.5,1.1,1.1,1.1h13.4c0.6,0,1.1-0.5,1.1-1.1V60.2   C149.9,57.7,147.9,55.6,145.3,55.6L145.3,55.6z"/>
</g>
<path class="st0" d="M158.7,60.4v47.3c0,2.5,2.1,4.6,4.6,4.6H220c0.6,0,1.1-0.5,1.1-1.1V98.8c0-0.6-0.5-1.1-1.1-1.1h-44.4  c-0.6,0-1.1-0.5-1.1-1.1v-5.3c0-0.1,0.1-0.2,0.2-0.2H220c0.6,0,1.1-0.5,1.1-1.1V60.5v0c0-2.6-2.1-4.7-4.7-4.7h-53.1  C160.8,55.8,158.7,57.9,158.7,60.4z M204.3,77.3h-29.7c-0.1,0-0.2-0.1-0.2-0.2v-5.5c0-0.6,0.5-1.1,1.1-1.1h28.8  c0.6,0,1.1,0.5,1.1,1.1v4.6C205.5,76.8,204.9,77.3,204.3,77.3z"/>
<g>
	<polygon class="st0" points="231.3,55.8 230.2,58.4 230.2,58.4 229.1,55.8 228.2,55.8 228.2,59.6 228.9,59.6 228.9,57.2 229,57.2    230,59.6 230.5,59.6 231.5,57.2 231.5,57.2 231.5,59.6 232.3,59.6 232.3,55.8  "/>
	<polygon class="st0" points="224.5,56.6 225.7,56.6 225.7,59.6 226.5,59.6 226.5,56.6 227.7,56.6 227.7,55.8 224.5,55.8  "/>
</g>
</svg>