<?xml version="1.0" encoding="UTF-8"?>
<svg xmlns="http://www.w3.org/2000/svg" xmlns:xlink="http://www.w3.org/1999/xlink" width="29px" height="29px" viewBox="0 0 29 29" version="1.1">
<g id="surface1">
<path style=" stroke:none;fill-rule:nonzero;fill:rgb(60.784314%,44.705882%,12.941176%);fill-opacity:1;" d="M 5.035156 23.125 C 6.5625 22.054688 8.089844 21.292969 9.617188 20.679688 C 11.140625 20.070312 12.746094 19.84375 14.5 19.84375 C 16.253906 19.84375 17.933594 20.148438 19.460938 20.679688 C 20.988281 21.292969 22.511719 22.054688 24.039062 23.125 C 25.183594 21.828125 25.949219 20.453125 26.480469 19.078125 C 27.015625 17.628906 27.320312 16.101562 27.320312 14.5 C 27.320312 10.914062 26.101562 7.859375 23.65625 5.417969 C 21.140625 2.976562 18.085938 1.753906 14.5 1.753906 C 10.914062 1.753906 7.859375 2.976562 5.417969 5.417969 C 2.976562 7.859375 1.753906 10.914062 1.753906 14.5 C 1.753906 16.101562 2.058594 17.628906 2.59375 19.078125 C 3.128906 20.527344 3.890625 21.902344 5.035156 23.125 Z M 14.5 15.339844 C 13.125 15.339844 11.980469 14.882812 11.066406 13.890625 C 10.148438 12.972656 9.691406 11.753906 9.691406 10.457031 C 9.691406 9.082031 10.148438 7.9375 11.140625 7.019531 C 12.058594 6.105469 13.277344 5.648438 14.578125 5.648438 C 15.875 5.648438 17.09375 6.105469 18.011719 7.097656 C 18.925781 8.011719 19.382812 9.234375 19.382812 10.53125 C 19.382812 11.90625 18.925781 13.050781 17.933594 13.964844 C 17.019531 14.882812 15.875 15.339844 14.5 15.339844 Z M 14.5 29 C 12.515625 29 10.609375 28.617188 8.851562 27.855469 C 7.097656 27.09375 5.570312 26.023438 4.273438 24.726562 C 2.976562 23.429688 1.90625 21.902344 1.144531 20.148438 C 0.382812 18.390625 0 16.484375 0 14.5 C 0 12.515625 0.382812 10.609375 1.144531 8.851562 C 1.90625 7.097656 2.976562 5.570312 4.273438 4.273438 C 5.570312 2.976562 7.097656 1.90625 8.851562 1.144531 C 10.609375 0.382812 12.515625 0 14.5 0 C 16.484375 0 18.390625 0.382812 20.148438 1.144531 C 21.902344 1.90625 23.429688 2.976562 24.726562 4.273438 C 26.023438 5.570312 27.09375 7.097656 27.855469 8.851562 C 28.617188 10.609375 29 12.515625 29 14.5 C 29 16.484375 28.617188 18.390625 27.855469 20.148438 C 27.09375 21.902344 26.023438 23.429688 24.726562 24.726562 C 23.429688 26.023438 21.902344 27.09375 20.148438 27.855469 C 18.390625 28.617188 16.484375 29 14.5 29 Z M 14.5 27.246094 C 15.949219 27.246094 17.324219 27.015625 18.699219 26.558594 C 20.070312 26.101562 21.367188 25.414062 22.589844 24.34375 C 21.367188 23.429688 20.070312 22.742188 18.699219 22.285156 C 17.324219 21.828125 15.949219 21.519531 14.5 21.519531 C 13.050781 21.519531 11.601562 21.75 10.300781 22.285156 C 8.929688 22.742188 7.632812 23.503906 6.488281 24.34375 C 7.707031 25.335938 9.003906 26.101562 10.378906 26.558594 C 11.753906 27.015625 13.050781 27.246094 14.5 27.246094 Z M 14.5 13.660156 C 15.414062 13.660156 16.179688 13.355469 16.789062 12.746094 C 17.398438 12.132812 17.707031 11.371094 17.707031 10.457031 C 17.707031 9.539062 17.398438 8.777344 16.789062 8.164062 C 16.179688 7.554688 15.414062 7.25 14.5 7.25 C 13.585938 7.25 12.820312 7.554688 12.210938 8.164062 C 11.601562 8.777344 11.292969 9.539062 11.292969 10.457031 C 11.292969 11.371094 11.601562 12.132812 12.210938 12.746094 C 12.820312 13.355469 13.585938 13.660156 14.5 13.660156 Z M 14.5 13.660156 "/>
</g>
</svg>
